<svg xmlns="http://www.w3.org/2000/svg" width="226" height="80" style="vector-effect: non-scaling-stroke;" stroke="null"><rect id="backgroundrect" width="100%" height="100%" x="0" y="0" fill="none" stroke="none"/>
                            
                        <g class="currentLayer"><title>Layer 1</title><path fill="#b6b6b6" fill-opacity="1" stroke="null" stroke-opacity="1" stroke-width="1" stroke-dasharray="none" stroke-linejoin="miter" stroke-linecap="butt" stroke-dashoffset="" fill-rule="nonzero" opacity="1" marker-start="" marker-mid="" marker-end="" d="M-17.309435844421387,40.000030517578125 C-17.309435844421387,-32.374061584472656 40.669304847717285,-90.9970703125 112.24809741973877,-90.9970703125 C183.8268404006958,-90.9970703125 241.80566120147705,-32.374061584472656 241.80566120147705,40.000030517578125 C241.80566120147705,112.37405395507812 183.8268404006958,170.9970703125 112.24809741973877,170.9970703125 C40.669304847717285,170.9970703125 -17.309435844421387,112.37405395507812 -17.309435844421387,40.000030517578125 z" class="" id="svg_14"/><path fill="#dadada" fill-opacity="1" stroke="null" stroke-opacity="1" stroke-width="1" stroke-dasharray="none" stroke-linejoin="miter" stroke-linecap="butt" stroke-dashoffset="" fill-rule="nonzero" opacity="1" marker-start="" marker-mid="" marker-end="" d="M33.06650257110596,40.20051574707031 C33.06650257110596,-4.452326774597168 68.83781147003174,-40.62112808227539 112.99998188018799,-40.62112808227539 C157.16210651397705,-40.62112808227539 192.9334535598755,-4.452326774597168 192.9334535598755,40.20051574707031 C192.9334535598755,84.85332489013672 157.16210651397705,121.02212524414062 112.99998188018799,121.02212524414062 C68.83781147003174,121.02212524414062 33.06650257110596,84.85332489013672 33.06650257110596,40.20051574707031 z" class="" id="svg_13"/><path fill="#e9e98a" fill-opacity="1" stroke="null" stroke-opacity="1" stroke-width="1" stroke-dasharray="none" stroke-linejoin="miter" stroke-linecap="butt" stroke-dashoffset="" fill-rule="nonzero" opacity="1" marker-start="" marker-mid="" marker-end="" d="M63.89356708526611,39.84128189086914 C63.89356708526611,13.24924373626709 85.19640827178955,-8.290302276611328 111.49622058868408,-8.290302276611328 C137.79601764678955,-8.290302276611328 159.09887409210205,13.24924373626709 159.09887409210205,39.84128189086914 C159.09887409210205,66.43330383300781 137.79601764678955,87.97284698486328 111.49622058868408,87.97284698486328 C85.19640827178955,87.97284698486328 63.89356708526611,66.43330383300781 63.89356708526611,39.84128189086914 z" id="svg_5" class=""/><g stroke="null" id="svg_2" class="">
                                &lt; stroke="null"&gt;Layer 1
                                <g id="svg_11">
                                    <circle stroke="#000000" fill-opacity="0" id="svg_1" r="13.892439842224121" cy="38.747291564941406" cx="111.07401275634766" stroke-width="5" fill="#000000"/>
                                    <line stroke="#000000" id="svg_3" y2="32.773590087890625" x2="111.07401275634766" y1="13.747291564941406" x1="111.07401275634766" fill-opacity="0" stroke-linecap="null" stroke-linejoin="null" stroke-dasharray="null" stroke-width="5" fill="none"/>
                                    <line stroke="#000000" id="svg_4" y2="63.76042938232422" x2="111.07401275634766" y1="44.7341423034668" x1="111.07401275634766" fill-opacity="0" stroke-linecap="null" stroke-linejoin="null" stroke-dasharray="null" stroke-width="5" fill="none"/>
                                    <g transform="rotate(90 111.07401275634766,28.247291564941417) " id="svg_10">
                                        <line id="svg_8" stroke="#000000" y2="22.26702117919922" x2="121.07401275634766" y1="3.2407217025756836" x1="121.07401275634766" fill-opacity="0" stroke-linecap="null" stroke-linejoin="null" stroke-dasharray="null" stroke-width="5" fill="none"/>
                                        <line id="svg_9" stroke="#000000" y2="53.25387191772461" x2="121.07401275634766" y1="34.22757339477539" x1="121.07401275634766" fill-opacity="0" stroke-linecap="null" stroke-linejoin="null" stroke-dasharray="null" stroke-width="5" fill="none"/>
                                    </g>
                                </g>
                            </g></g></svg>