<?xml version="1.0" encoding="UTF-8" standalone="no"?>
<!-- Generator: Adobe Illustrator 16.0.0, SVG Export Plug-In . SVG Version: 6.00 Build 0)  -->

<svg
   xmlns:dc="http://purl.org/dc/elements/1.1/"
   xmlns:cc="http://creativecommons.org/ns#"
   xmlns:rdf="http://www.w3.org/1999/02/22-rdf-syntax-ns#"
   xmlns:svg="http://www.w3.org/2000/svg"
   xmlns="http://www.w3.org/2000/svg"
   xmlns:sodipodi="http://sodipodi.sourceforge.net/DTD/sodipodi-0.dtd"
   xmlns:inkscape="http://www.inkscape.org/namespaces/inkscape"
   version="1.1"
   id="Layer_1"
   x="0px"
   y="0px"
   width="100"
   height="60"
   viewBox="0 0 100 60"
   enable-background="new 0 0 512 512"
   xml:space="preserve"
   inkscape:version="0.91 r13725"
   sodipodi:docname="lock2.svg"><metadata
   id="metadata3343"><rdf:RDF><cc:Work
       rdf:about=""><dc:format>image/svg+xml</dc:format><dc:type
         rdf:resource="http://purl.org/dc/dcmitype/StillImage" /><dc:title></dc:title></cc:Work></rdf:RDF></metadata><defs
   id="defs3341" /><sodipodi:namedview
   pagecolor="#ffffff"
   bordercolor="#666666"
   borderopacity="1"
   objecttolerance="10"
   gridtolerance="10"
   guidetolerance="10"
   inkscape:pageopacity="0"
   inkscape:pageshadow="2"
   inkscape:window-width="1366"
   inkscape:window-height="768"
   id="namedview3339"
   showgrid="false"
   inkscape:zoom="8"
   inkscape:cx="56.984375"
   inkscape:cy="29.152344"
   inkscape:window-x="0"
   inkscape:window-y="32"
   inkscape:window-maximized="1"
   inkscape:current-layer="Layer_1" />

<path
   d="m 15.354234,26.34975 1.679446,0 0,-3.326677 c 0,-5.556646 4.520129,-10.076665 10.076677,-10.076665 5.556548,0 10.076677,4.520117 10.076677,10.076665 l 0,3.358892 -3.358892,0 0,-3.358892 c 0,-3.709887 -3.007886,-6.717773 -6.717785,-6.717773 -3.709899,0 -6.717785,3.007886 -6.717785,6.717773 l 0,3.326677 18.473896,0 c 4.546366,6.061756 3.737715,14.590183 -1.868062,19.687618 -5.605777,5.10068 -14.168644,5.10068 -19.777776,0 C 11.614841,40.939933 10.807868,32.411506 15.354234,26.34975 Z m 10.076677,12.920604 0,4.188748 c 0,0.928313 0.751132,1.679446 1.679446,1.679446 0.928313,0 1.679446,-0.751133 1.679446,-1.679446 l 0,-4.188748 c 0.985733,-0.587174 1.679446,-1.613836 1.679446,-2.843927 0,-1.856627 -1.503943,-3.358892 -3.358892,-3.358892 -1.85495,0 -3.358893,1.502363 -3.358893,3.358892 0,1.230091 0.693713,2.256753 1.679447,2.843927 z"
   id="path3337"
   inkscape:connector-curvature="0"
   sodipodi:nodetypes="ccsssccsssccccccssscsssc" /><g
   style="font-style:normal;font-variant:normal;font-weight:normal;font-stretch:normal;font-size:13.90805149px;line-height:83.99999738%;font-family:Arial;-inkscape-font-specification:Arial;letter-spacing:0px;word-spacing:0px;fill:#000000;fill-opacity:1;stroke:none;stroke-width:1px;stroke-linecap:butt;stroke-linejoin:miter;stroke-opacity:1"
   id="text3366"><path
     d="m 52.249313,31.181271 q 0,0.809326 -0.301513,1.420288 -0.301514,0.610962 -0.817261,1.023559 -0.515747,0.404663 -1.206055,0.610962 -0.690307,0.206299 -1.47583,0.206299 -0.531616,0 -0.991821,-0.08728 -0.452271,-0.08728 -0.801392,-0.206299 -0.349121,-0.126953 -0.587158,-0.261841 -0.230102,-0.134888 -0.333252,-0.238037 -0.103149,-0.103149 -0.150757,-0.293579 -0.03967,-0.198364 -0.03967,-0.563355 0,-0.245971 0.01587,-0.412597 0.01587,-0.166626 0.04761,-0.269776 0.03967,-0.103149 0.09522,-0.142822 0.06348,-0.04761 0.142822,-0.04761 0.111084,0 0.309448,0.134887 0.206299,0.126953 0.523682,0.285645 0.317383,0.158691 0.753784,0.293579 0.444336,0.126953 1.02356,0.126953 0.380859,0 0.682373,-0.08728 0.301513,-0.09521 0.507812,-0.261841 0.214234,-0.166626 0.325318,-0.412598 0.111084,-0.245971 0.111084,-0.547485 0,-0.349121 -0.19043,-0.595093 -0.19043,-0.253906 -0.499878,-0.444336 -0.301514,-0.198364 -0.690308,-0.36499 -0.388794,-0.174561 -0.801391,-0.36499 -0.412598,-0.19043 -0.801392,-0.428467 -0.388794,-0.245972 -0.698242,-0.579224 -0.301514,-0.341186 -0.491943,-0.801391 -0.19043,-0.460205 -0.19043,-1.102905 0,-0.737916 0.269775,-1.293335 0.27771,-0.563355 0.737915,-0.928345 0.46814,-0.372925 1.094971,-0.55542 0.634766,-0.182495 1.340943,-0.182495 0.36499,0 0.72998,0.05554 0.36499,0.05554 0.682373,0.150757 0.317383,0.09521 0.563355,0.214233 0.245971,0.119019 0.325317,0.198364 0.07935,0.07935 0.103149,0.134888 0.03174,0.05554 0.04761,0.150757 0.0238,0.08728 0.03174,0.230102 0.0079,0.134888 0.0079,0.341187 0,0.230102 -0.01587,0.388794 -0.0079,0.158691 -0.03967,0.261841 -0.0238,0.103149 -0.07935,0.150756 -0.04761,0.04761 -0.134888,0.04761 -0.08728,0 -0.27771,-0.111084 -0.190429,-0.111084 -0.468139,-0.238037 -0.27771,-0.134888 -0.642701,-0.238037 -0.36499,-0.111084 -0.801391,-0.111084 -0.341187,0 -0.595093,0.08728 -0.253906,0.07935 -0.428467,0.230103 -0.166626,0.142822 -0.253906,0.349121 -0.07935,0.206298 -0.07935,0.436401 0,0.341186 0.182495,0.595093 0.19043,0.245971 0.499878,0.444336 0.317383,0.190429 0.714112,0.36499 0.396728,0.166626 0.809326,0.357056 0.412597,0.190429 0.809326,0.436401 0.396728,0.238037 0.706177,0.579224 0.309448,0.333252 0.499878,0.793457 0.190429,0.45227 0.190429,1.071167 z"
     style="font-style:normal;font-variant:normal;font-weight:bold;font-stretch:normal;font-size:16.25px;line-height:83.99999738%;font-family:Calibri;-inkscape-font-specification:'Calibri Bold'"
     id="path3373" /><path
     d="m 60.945602,32.704708 q 0,0.198364 -0.01587,0.341187 -0.0079,0.134887 -0.03174,0.238037 -0.0238,0.09522 -0.06348,0.166626 -0.03967,0.07141 -0.126953,0.166626 -0.08728,0.08728 -0.341186,0.230102 -0.245972,0.142822 -0.610962,0.27771 -0.357056,0.126953 -0.825195,0.214234 -0.460206,0.08728 -0.999756,0.08728 -1.055298,0 -1.904297,-0.325318 -0.848999,-0.325317 -1.444092,-0.968017 -0.595093,-0.650635 -0.912476,-1.618652 -0.317382,-0.968018 -0.317382,-2.253418 0,-1.309205 0.349121,-2.32483 0.349121,-1.015625 0.975952,-1.705932 0.626831,-0.690308 1.499634,-1.047363 0.880737,-0.357056 1.936035,-0.357056 0.428467,0 0.825195,0.07141 0.396729,0.07141 0.729981,0.19043 0.341186,0.111084 0.610962,0.261841 0.269775,0.150756 0.372924,0.26184 0.111084,0.10315 0.150757,0.174561 0.03967,0.07141 0.06348,0.182495 0.0238,0.111084 0.03174,0.261841 0.01587,0.150757 0.01587,0.372925 0,0.238037 -0.01587,0.404663 -0.01587,0.166626 -0.05554,0.269775 -0.03967,0.10315 -0.09521,0.150757 -0.05554,0.04761 -0.126953,0.04761 -0.119019,0 -0.301514,-0.134887 -0.182495,-0.142823 -0.476074,-0.309449 -0.285644,-0.17456 -0.690307,-0.309448 -0.396729,-0.142822 -0.952149,-0.142822 -0.610962,0 -1.094971,0.253906 -0.476074,0.245972 -0.81726,0.714112 -0.333252,0.460205 -0.507813,1.118774 -0.17456,0.658569 -0.17456,1.483765 0,0.904541 0.182495,1.571045 0.190429,0.658569 0.531616,1.087036 0.349121,0.428466 0.83313,0.6427 0.491943,0.206299 1.102905,0.206299 0.55542,0 0.960083,-0.126953 0.404663,-0.134888 0.690308,-0.29358 0.293579,-0.158691 0.476074,-0.285644 0.19043,-0.126953 0.293579,-0.126953 0.07935,0 0.126953,0.03174 0.04761,0.03174 0.07935,0.126953 0.03174,0.09521 0.04761,0.269776 0.01587,0.166626 0.01587,0.45227 z"
     style="font-style:normal;font-variant:normal;font-weight:bold;font-stretch:normal;font-size:16.25px;line-height:83.99999738%;font-family:Calibri;-inkscape-font-specification:'Calibri Bold'"
     id="path3375" /><path
     d="m 71.554123,29.007198 q 0,1.277466 -0.317383,2.285157 -0.317383,1.00769 -0.944214,1.713867 -0.626831,0.698242 -1.555176,1.071167 -0.92041,0.36499 -2.134399,0.36499 -1.19812,0 -2.094727,-0.309448 -0.888671,-0.317383 -1.483764,-0.960083 -0.595093,-0.6427 -0.896607,-1.634522 -0.293579,-0.991821 -0.293579,-2.348633 0,-1.245727 0.317383,-2.237548 0.317383,-0.999756 0.944214,-1.697998 0.626831,-0.698243 1.547241,-1.071167 0.928345,-0.372925 2.150269,-0.372925 1.166382,0 2.055053,0.309448 0.896607,0.309448 1.4917,0.952148 0.603027,0.642701 0.904541,1.626587 0.309448,0.975953 0.309448,2.30896 z m -2.189941,0.111084 q 0,-0.809326 -0.126954,-1.467895 -0.126953,-0.666504 -0.436401,-1.134644 -0.301514,-0.476074 -0.809326,-0.72998 -0.507813,-0.261841 -1.269531,-0.261841 -0.769654,0 -1.285401,0.293579 -0.515747,0.285645 -0.83313,0.769653 -0.317382,0.484009 -0.45227,1.134644 -0.126953,0.6427 -0.126953,1.364746 0,0.841064 0.126953,1.515503 0.126953,0.666504 0.428467,1.142578 0.301513,0.476074 0.809326,0.729981 0.507812,0.245971 1.277466,0.245971 0.769653,0 1.2854,-0.285644 0.515747,-0.285645 0.83313,-0.777588 0.317383,-0.491944 0.444336,-1.142578 0.134888,-0.65857 0.134888,-1.396485 z"
     style="font-style:normal;font-variant:normal;font-weight:bold;font-stretch:normal;font-size:16.25px;line-height:83.99999738%;font-family:Calibri;-inkscape-font-specification:'Calibri Bold'"
     id="path3377" /><path
     d="m 80.916916,33.990108 q 0,0.08728 -0.03174,0.150757 -0.03174,0.05554 -0.150757,0.09522 -0.119019,0.03967 -0.349121,0.05554 -0.230103,0.01587 -0.626831,0.01587 -0.333252,0 -0.531617,-0.01587 -0.198364,-0.01587 -0.317382,-0.05554 -0.111084,-0.04761 -0.158692,-0.111084 -0.04761,-0.07141 -0.07935,-0.166626 l -0.92041,-2.293091 q -0.166626,-0.388794 -0.325317,-0.690307 -0.158691,-0.301514 -0.357056,-0.499878 -0.190429,-0.206299 -0.444336,-0.309448 -0.253906,-0.10315 -0.587158,-0.10315 l -0.650635,0 0,3.911743 q 0,0.07935 -0.05554,0.142823 -0.04761,0.06348 -0.166626,0.103149 -0.119018,0.03967 -0.317382,0.06348 -0.198365,0.0238 -0.507813,0.0238 -0.301514,0 -0.507812,-0.0238 -0.198365,-0.0238 -0.317383,-0.06348 -0.119019,-0.03967 -0.166626,-0.103149 -0.04761,-0.06348 -0.04761,-0.142823 l 0,-9.32312 q 0,-0.349121 0.174561,-0.499878 0.182495,-0.158691 0.444336,-0.158691 l 2.658081,0 q 0.404663,0 0.666504,0.01587 0.261841,0.01587 0.476074,0.03967 0.618897,0.08728 1.11084,0.301514 0.499878,0.214233 0.841064,0.563354 0.349121,0.341187 0.531617,0.817261 0.182495,0.468139 0.182495,1.079101 0,0.515747 -0.134888,0.944214 -0.126953,0.420532 -0.380859,0.753784 -0.253907,0.333252 -0.626831,0.579224 -0.372925,0.245972 -0.848999,0.396729 0.230102,0.111084 0.428466,0.269775 0.206299,0.158691 0.38086,0.388794 0.182495,0.222168 0.341186,0.515747 0.158692,0.285644 0.309448,0.650635 l 0.864869,2.023315 q 0.119018,0.301514 0.158691,0.444336 0.03967,0.134888 0.03967,0.214233 z m -2.689819,-6.966552 q 0,-0.507813 -0.230103,-0.856934 -0.230103,-0.349121 -0.753784,-0.491943 -0.158692,-0.03967 -0.36499,-0.06348 -0.198365,-0.0238 -0.55542,-0.0238 l -0.93628,0 0,2.911987 1.063233,0 q 0.444336,0 0.777588,-0.10315 0.333252,-0.111084 0.55542,-0.301513 0.222168,-0.198365 0.333252,-0.46814 0.111084,-0.269775 0.111084,-0.603027 z"
     style="font-style:normal;font-variant:normal;font-weight:bold;font-stretch:normal;font-size:16.25px;line-height:83.99999738%;font-family:Calibri;-inkscape-font-specification:'Calibri Bold'"
     id="path3379" /><path
     d="m 88.526169,33.442623 q 0,0.230103 -0.0238,0.388794 -0.01587,0.150757 -0.05554,0.245972 -0.03967,0.09522 -0.103149,0.142822 -0.05554,0.03967 -0.126953,0.03967 l -5.157471,0 q -0.261841,0 -0.444336,-0.150757 -0.174561,-0.158691 -0.174561,-0.507812 l 0,-8.950196 q 0,-0.349121 0.174561,-0.499878 0.182495,-0.158691 0.444336,-0.158691 l 5.125732,0 q 0.07141,0 0.126953,0.03967 0.05554,0.03967 0.09521,0.142822 0.03967,0.09521 0.05554,0.253906 0.0238,0.150757 0.0238,0.388794 0,0.222168 -0.0238,0.38086 -0.01587,0.150756 -0.05554,0.245971 -0.03967,0.09521 -0.09521,0.142823 -0.05554,0.03967 -0.126953,0.03967 l -3.665771,0 0,2.507325 3.102417,0 q 0.07141,0 0.126953,0.04761 0.06348,0.03967 0.103149,0.134888 0.03967,0.08728 0.05554,0.245971 0.0238,0.150757 0.0238,0.372925 0,0.230103 -0.0238,0.38086 -0.01587,0.150756 -0.05554,0.245971 -0.03967,0.08728 -0.103149,0.126953 -0.05554,0.03967 -0.126953,0.03967 l -3.102417,0 0,2.896118 3.69751,0 q 0.07141,0 0.126953,0.04761 0.06348,0.03967 0.103149,0.134888 0.03967,0.09521 0.05554,0.253906 0.0238,0.150757 0.0238,0.380859 z"
     style="font-style:normal;font-variant:normal;font-weight:bold;font-stretch:normal;font-size:16.25px;line-height:83.99999738%;font-family:Calibri;-inkscape-font-specification:'Calibri Bold'"
     id="path3381" /><path
     d="m 51.804977,47.037081 q 0,0.238037 -0.0238,0.404663 -0.01587,0.158691 -0.05554,0.269775 -0.03967,0.10315 -0.10315,0.150757 -0.05554,0.04761 -0.134887,0.04761 l -4.705201,0 q -0.26184,0 -0.444336,-0.150756 -0.17456,-0.158692 -0.17456,-0.507813 l 0,-9.32312 q 0,-0.07935 0.04761,-0.142822 0.05554,-0.06348 0.174561,-0.10315 0.119018,-0.03967 0.317383,-0.06348 0.206299,-0.0238 0.507812,-0.0238 0.309448,0 0.507813,0.0238 0.198364,0.0238 0.317383,0.06348 0.119018,0.03967 0.166625,0.10315 0.05554,0.06348 0.05554,0.142822 l 0,8.259888 3.229371,0 q 0.07935,0 0.134887,0.04761 0.06348,0.03967 0.10315,0.142822 0.03967,0.09521 0.05554,0.261841 0.0238,0.158692 0.0238,0.396729 z"
     style="font-style:normal;font-variant:normal;font-weight:bold;font-stretch:normal;font-size:16.25px;line-height:83.99999738%;font-family:Calibri;-inkscape-font-specification:'Calibri Bold'"
     id="path3383" /><path
     d="m 62.0009,42.657198 q 0,1.277466 -0.317383,2.285156 -0.317382,1.007691 -0.944213,1.713867 -0.626831,0.698243 -1.555176,1.071167 -0.92041,0.364991 -2.1344,0.364991 -1.19812,0 -2.094726,-0.309449 -0.888672,-0.317382 -1.483765,-0.960083 -0.595093,-0.6427 -0.896606,-1.634521 -0.293579,-0.991821 -0.293579,-2.348633 0,-1.245728 0.317382,-2.237549 0.317383,-0.999756 0.944214,-1.697998 0.626831,-0.698242 1.547242,-1.071167 0.928344,-0.372925 2.150268,-0.372925 1.166382,0 2.055054,0.309449 0.896606,0.309448 1.491699,0.952148 0.603027,0.6427 0.904541,1.626587 0.309448,0.975952 0.309448,2.30896 z m -2.189941,0.111084 q 0,-0.809326 -0.126953,-1.467896 -0.126953,-0.666504 -0.436402,-1.134643 -0.301513,-0.476074 -0.809326,-0.729981 -0.507812,-0.26184 -1.269531,-0.26184 -0.769653,0 -1.2854,0.293579 -0.515748,0.285644 -0.83313,0.769653 -0.317383,0.484009 -0.452271,1.134644 -0.126953,0.6427 -0.126953,1.364746 0,0.841064 0.126953,1.515503 0.126953,0.666503 0.428467,1.142578 0.301514,0.476074 0.809326,0.72998 0.507813,0.245972 1.277466,0.245972 0.769653,0 1.2854,-0.285645 0.515747,-0.285644 0.83313,-0.777588 0.317383,-0.491943 0.444336,-1.142578 0.134888,-0.658569 0.134888,-1.396484 z"
     style="font-style:normal;font-variant:normal;font-weight:bold;font-stretch:normal;font-size:16.25px;line-height:83.99999738%;font-family:Calibri;-inkscape-font-specification:'Calibri Bold'"
     id="path3385" /><path
     d="m 70.847946,46.354708 q 0,0.198364 -0.01587,0.341186 -0.0079,0.134888 -0.03174,0.238037 -0.0238,0.09521 -0.06348,0.166626 -0.03967,0.07141 -0.126953,0.166626 -0.08728,0.08728 -0.341186,0.230103 -0.245972,0.142822 -0.610962,0.27771 -0.357056,0.126953 -0.825196,0.214233 -0.460205,0.08728 -0.999756,0.08728 -1.055297,0 -1.904296,-0.325317 -0.848999,-0.325317 -1.444092,-0.968018 -0.595093,-0.650634 -0.912476,-1.618652 -0.317383,-0.968017 -0.317383,-2.253418 0,-1.309204 0.349121,-2.324829 0.349122,-1.015625 0.975953,-1.705933 0.626831,-0.690307 1.499633,-1.047363 0.880738,-0.357056 1.936036,-0.357056 0.428466,0 0.825195,0.07141 0.396728,0.07141 0.72998,0.190429 0.341187,0.111084 0.610962,0.261841 0.269776,0.150757 0.372925,0.261841 0.111084,0.103149 0.150757,0.174561 0.03967,0.07141 0.06348,0.182495 0.0238,0.111084 0.03174,0.26184 0.01587,0.150757 0.01587,0.372925 0,0.238037 -0.01587,0.404663 -0.01587,0.166626 -0.05554,0.269776 -0.03967,0.103149 -0.09522,0.150757 -0.05554,0.04761 -0.126953,0.04761 -0.119019,0 -0.301514,-0.134888 -0.182495,-0.142822 -0.476074,-0.309448 -0.285645,-0.174561 -0.690308,-0.309448 -0.396728,-0.142822 -0.952148,-0.142822 -0.610962,0 -1.094971,0.253906 -0.476074,0.245971 -0.817261,0.714111 -0.333252,0.460205 -0.507812,1.118775 -0.174561,0.658569 -0.174561,1.483764 0,0.904541 0.182495,1.571045 0.19043,0.658569 0.531617,1.087036 0.349121,0.428467 0.83313,0.6427 0.491943,0.206299 1.102905,0.206299 0.55542,0 0.960083,-0.126953 0.404663,-0.134888 0.690307,-0.293579 0.29358,-0.158691 0.476075,-0.285645 0.190429,-0.126953 0.293579,-0.126953 0.07935,0 0.126953,0.03174 0.04761,0.03174 0.07935,0.126953 0.03174,0.09521 0.04761,0.269775 0.01587,0.166626 0.01587,0.452271 z"
     style="font-style:normal;font-variant:normal;font-weight:bold;font-stretch:normal;font-size:16.25px;line-height:83.99999738%;font-family:Calibri;-inkscape-font-specification:'Calibri Bold'"
     id="path3387" /><path
     d="m 79.845749,47.600435 q 0,0.08728 -0.04761,0.158692 -0.03967,0.06348 -0.166625,0.111084 -0.119019,0.03967 -0.333252,0.06348 -0.214234,0.0238 -0.539551,0.0238 -0.515747,0 -0.74585,-0.03967 -0.222168,-0.03967 -0.325317,-0.119019 -0.09521,-0.07935 -0.150757,-0.190429 l -3.102417,-4.871826 0,4.871826 q 0,0.08728 -0.04761,0.150757 -0.04761,0.06348 -0.166626,0.111084 -0.119019,0.03967 -0.317383,0.06348 -0.198365,0.0238 -0.507813,0.0238 -0.301513,0 -0.507812,-0.0238 -0.198365,-0.0238 -0.317383,-0.06348 -0.119019,-0.04761 -0.174561,-0.111084 -0.04761,-0.06348 -0.04761,-0.150757 l 0,-9.672241 q 0,-0.08728 0.04761,-0.150757 0.05554,-0.06348 0.174561,-0.10315 0.119018,-0.03967 0.317383,-0.06348 0.206299,-0.0238 0.507812,-0.0238 0.309448,0 0.507813,0.0238 0.198364,0.0238 0.317383,0.06348 0.119018,0.03967 0.166626,0.10315 0.04761,0.06348 0.04761,0.150757 l 0,4.371948 3.007202,-4.364014 q 0.05554,-0.103149 0.134888,-0.166626 0.07934,-0.07141 0.206299,-0.111084 0.126953,-0.03967 0.325317,-0.05554 0.198364,-0.01587 0.507813,-0.01587 0.317382,0 0.523681,0.0238 0.206299,0.0238 0.325318,0.07141 0.126953,0.03967 0.17456,0.103149 0.04761,0.06348 0.04761,0.142823 0,0.134887 -0.07141,0.27771 -0.07141,0.142822 -0.269775,0.45227 l -2.816772,3.689575 3.070678,4.641724 q 0.174561,0.325317 0.206299,0.436401 0.03967,0.10315 0.03967,0.166626 z"
     style="font-style:normal;font-variant:normal;font-weight:bold;font-stretch:normal;font-size:16.25px;line-height:83.99999738%;font-family:Calibri;-inkscape-font-specification:'Calibri Bold'"
     id="path3389" /></g></svg>